<svg xmlns="http://www.w3.org/2000/svg" width="24" height="24" viewBox="0 0 94 94">
<g>
<path d="M 23.00,77.77 L 23.00,78.06 L 23.13,78.53 L 23.35,78.59 L 23.87,78.58 L 24.20,78.38 L 24.90,78.22 L 25.80,78.12 L 26.44,78.07 L 27.86,77.98 L 28.73,77.93 L 30.59,77.84 L 31.67,77.80 L 33.91,77.72 L 35.16,77.68 L 37.72,77.61 L 39.10,77.58 L 44.85,77.47 L 47.95,77.45 L 56.82,77.35 L 59.54,77.32 L 60.79,77.30 L 63.23,77.26 L 64.32,77.24 L 66.41,77.20 L 67.30,77.18 L 68.98,77.15 L 69.64,77.13 L 70.84,77.09 L 71.24,77.07 L 71.90,77.03 L 72.00,77.02 L 72.92,76.98 L 73.79,77.02 L 74.31,77.07 L 76.58,77.31 L 77.75,77.52 L 80.06,77.86 L 80.42,77.88 L 80.07,78.00 L 79.73,78.00 L 79.17,78.16 L 78.92,78.26 L 78.51,78.64 L 78.33,78.86 L 78.07,79.49 L 77.82,80.72 L 77.72,81.56 L 76.88,83.10 L 74.87,84.91 L 74.28,85.24 L 73.38,85.64 L 72.96,85.80 L 72.23,85.86 L 71.87,85.84 L 71.09,85.54 L 69.62,84.67 L 68.79,84.13 L 67.69,82.75 L 67.00,80.48 L 67.00,78.00 L 34.00,78.00 L 34.00,81.07 L 33.76,82.20 L 33.61,82.74 L 33.11,83.66 L 32.83,84.09 L 32.12,84.77 L 31.74,85.08 L 30.87,85.51 L 30.43,85.69 L 29.46,85.83 L 28.97,85.87 L 27.95,85.71 L 27.44,85.59 L 26.44,85.11 L 25.94,84.83 L 25.00,84.00 L 24.45,83.45 L 23.59,81.85 L 23.00,79.50 L 23.00,78.74 L 22.61,77.68 L 21.56,77.00 L 22.58,77.31 M 82.00,76.66 L 81.99,76.67 L 82.00,76.62 M 81.91,75.35 L 81.92,75.38 L 81.87,75.28 M 81.70,75.00 L 81.71,75.02 L 81.61,74.95 M 81.97,75.75 L 82.00,76.00 L 82.00,76.13 M 11.78,24.39 L 12.08,24.00 L 12.41,24.00 L 12.08,24.00 Z" fill="rgba(4,3,3,1)"/>
<path d="M 20.14,76.60 L 20.71,76.85 L 20.17,76.62 L 19.75,76.38 L 19.72,76.36 M 18.96,75.53 L 19.52,76.14 L 19.01,75.59 L 18.66,75.16 L 18.62,75.09 M 18.05,73.94 L 18.49,74.82 L 18.10,74.06 L 17.84,73.49 L 17.81,73.39 M 17.43,72.00 L 17.65,72.80 L 17.47,72.18 L 17.16,70.85 L 17.17,70.77 M 17.27,67.76 L 17.22,68.88 L 17.24,67.98 L 17.32,67.28 L 17.35,67.17 M 88.79,30.89 L 88.80,31.57 L 88.78,31.95 L 88.63,32.91 L 87.67,36.29 L 87.46,36.87 L 86.90,38.79 L 86.61,39.85 L 85.97,42.48 L 84.60,48.94 L 84.65,48.60 L 84.67,48.12 L 84.65,47.32 L 84.55,47.22 L 84.28,47.39 L 83.97,47.79 L 83.76,48.10 L 82.84,49.62 L 82.30,50.65 L 80.74,53.31 L 79.61,54.78 L 78.91,55.39 L 77.42,56.53 L 76.46,56.99 L 74.37,57.86 L 73.03,58.21 L 70.12,58.86 L 68.27,59.12 L 66.35,59.38 L 65.28,59.50 L 63.06,59.73 L 61.83,59.83 L 59.28,60.04 L 57.87,60.14 L 54.96,60.33 L 53.36,60.43 L 50.06,60.62 L 48.25,60.71 L 44.53,60.90 L 42.50,61.00 L 38.90,61.18 L 36.71,61.29 L 35.71,61.34 L 31.97,61.55 L 30.45,61.64 L 27.61,61.83 L 26.49,61.93 L 24.41,62.12 L 23.61,62.23 L 22.16,62.45 L 21.62,62.57 L 20.64,62.84 L 20.29,62.99 L 19.15,63.67 L 18.75,64.15 L 17.78,65.79 L 17.47,66.76 L 17.70,65.95 L 18.58,64.19 L 18.95,63.67 L 19.38,62.62 L 19.54,62.04 L 19.52,60.35 L 19.48,59.86 L 19.32,58.62 L 19.22,57.95 L 18.93,56.31 L 18.77,55.43 L 18.34,53.29 L 17.54,49.43 L 17.18,47.71 L 16.58,44.49 L 16.30,42.94 L 15.89,40.29 L 15.71,39.06 L 15.54,37.26 L 15.51,36.88 L 15.51,36.33 L 15.59,35.85 L 15.77,35.56 L 15.71,34.88 L 15.08,34.05 L 14.88,33.93 L 14.81,33.83 L 22.75,34.50 L 24.82,34.65 L 26.44,34.74 L 27.35,34.78 L 31.23,34.95 L 33.41,35.01 L 42.56,35.21 L 46.75,35.20 L 52.67,35.23 L 56.14,35.30 L 57.52,35.36 L 58.84,35.42 L 59.39,35.46 L 60.41,35.53 L 60.80,35.57 L 61.48,35.65 L 61.69,35.69 L 62.00,35.78 L 62.00,35.82 L 62.07,35.91 L 62.22,35.95 L 62.57,36.03 L 62.85,36.06 L 64.18,36.17 L 65.15,36.20 L 67.28,36.24 L 68.56,36.23 L 71.26,36.20 L 72.73,36.15 L 75.74,36.04 L 77.48,35.95 L 78.23,35.90 L 79.65,35.78 L 80.27,35.72 L 81.43,35.57 L 81.93,35.48 L 83.73,35.09 L 84.43,34.82 L 85.71,34.21 L 86.28,33.80 L 88.16,32.05 L 88.55,31.49 L 88.64,31.25 L 88.76,30.83 M 78.10,64.87 L 78.10,64.87 L 78.60,64.76 M 78.60,64.76 L 78.60,64.76 L 78.79,64.71 M 81.24,62.49 L 81.10,62.86 L 80.83,63.42 L 80.48,63.95 L 80.48,63.95 L 81.07,62.88 L 81.43,61.97 M 82.17,59.66 L 81.84,60.79 L 81.65,61.33 L 81.80,60.88 L 82.24,59.41 M 79.69,37.14 L 73.50,37.28 L 78.69,37.91 L 82.56,38.56 L 83.55,38.81 L 83.90,38.92 L 84.48,39.15 L 84.58,39.24 L 85.10,39.60 L 85.38,39.61 L 85.93,39.53 L 86.15,39.38 L 86.53,39.01 L 86.60,38.76 L 86.63,38.22 L 86.46,37.93 L 85.75,37.58 L 84.85,37.39 L 84.23,37.31 L 82.91,37.19 L 82.14,37.16 L 80.54,37.12 M 59.20,27.00 L 65.21,27.44 L 68.10,27.66 L 73.17,28.11 L 75.57,28.33 L 79.62,28.78 L 80.56,28.89 L 82.24,29.11 L 83.04,29.22 L 84.44,29.44 L 85.10,29.55 L 86.20,29.77 L 86.72,29.88 L 87.51,30.09 L 87.56,30.10 L 87.38,30.06 L 86.47,29.85 L 85.89,29.74 L 84.64,29.52 L 83.90,29.41 L 82.33,29.18 L 81.43,29.06 L 79.56,28.83 L 78.53,28.71 L 74.11,28.24 L 71.54,28.01 L 66.16,27.54 L 63.18,27.31 L 57.27,26.87 M 12.00,21.98 L 12.62,22.87 L 12.67,23.27 L 12.67,23.65 L 12.58,23.80 L 12.35,24.08 L 12.12,24.17 L 11.90,24.66 L 11.87,25.31 L 11.92,25.76 L 12.23,27.74 L 12.15,27.46 L 11.79,25.43 L 11.74,25.00 L 11.78,24.39 L 12.08,24.00 L 12.41,24.00 L 12.56,23.52 L 12.07,22.13 L 11.98,21.95 M 16.39,23.72 L 16.78,23.92 L 17.90,24.25 L 18.53,24.41 L 20.20,24.66 L 21.12,24.78 L 23.47,24.99 L 24.73,25.09 L 26.86,25.22 L 24.34,25.07 L 23.16,24.97 L 20.95,24.78 L 20.08,24.66 L 18.48,24.41 L 17.88,24.26 L 16.79,23.93 L 16.41,23.73 L 15.74,23.31 L 15.73,23.30 M 15.55,23.08 L 15.53,23.05 L 15.53,23.05 M 15.44,22.91 L 15.19,22.51 L 15.18,22.47 M 15.10,22.13 L 15.15,22.35 L 15.11,22.18 L 15.00,21.49 L 15.00,21.41 M 14.15,18.09 L 14.45,18.56 L 14.80,19.51 L 15.00,20.98 L 15.00,21.09 L 14.36,18.55 L 13.82,17.63 M 8.25,20.80 L 8.01,20.85 L 7.40,20.74 M 9.66,20.77 L 8.92,20.73 L 9.09,20.69 M 7.05,20.68 L 6.54,20.59 L 6.21,20.41 M 6.66,12.26 L 7.33,12.45 L 8.77,13.23 L 9.28,13.61 L 9.11,13.51 L 8.40,13.16 L 8.27,13.21 L 8.16,13.45 L 8.39,13.82 L 8.60,15.32 L 8.27,16.48 L 7.94,17.02 L 7.18,18.07 L 6.71,18.43 L 5.72,19.02 L 5.21,19.03 L 4.35,19.08 L 4.23,19.11 L 3.29,18.47 L 2.07,18.00 L 1.86,18.00 L 1.54,17.80 L 1.39,17.67 L 1.19,17.25 L 1.02,16.80 L 1.03,15.56 L 1.09,14.92 L 1.52,13.73 L 2.58,12.61 L 3.33,12.32 L 4.69,12.08 L 5.35,12.01 M 11.27,15.07 L 11.95,15.63 L 12.11,15.79 L 11.15,14.98 M 57.04,65.76 L 58.28,65.74 L 62.94,65.66 L 64.89,65.61 L 68.55,65.52 L 70.04,65.46 L 72.82,65.35 L 73.92,65.28 L 75.94,65.14 L 76.71,65.05 L 77.96,64.89 L 76.71,65.05 L 75.94,65.14 L 73.92,65.28 L 72.82,65.35 L 70.05,65.46 L 68.55,65.52 L 64.90,65.61 L 62.95,65.66 L 58.28,65.74 L 57.04,65.76 L 54.36,65.80 L 50.00,65.85 L 54.36,65.80 Z" fill="rgba(32,148,233,1)"/>
<path d="M 20.91,76.94 L 21.06,77.00 L 21.05,77.00 M 23.59,73.48 L 24.21,73.58 L 25.98,73.72 L 26.98,73.79 L 29.69,73.88 L 30.43,73.90 L 32.14,73.93 L 33.03,73.94 L 35.04,73.96 L 36.09,73.97 L 38.44,73.98 L 39.66,73.99 L 42.38,73.99 L 43.79,74.00 L 46.90,74.00 L 52.04,74.00 L 46.83,74.00 L 43.69,74.00 L 42.26,73.99 L 39.52,73.99 L 38.29,73.98 L 35.93,73.97 L 34.87,73.96 L 32.85,73.94 L 31.96,73.93 L 30.25,73.90 L 29.51,73.88 L 26.81,73.79 L 25.83,73.72 L 24.08,73.57 L 23.48,73.47 L 22.58,73.27 M 22.18,73.12 L 22.52,73.26 L 22.44,73.24 L 22.11,73.09 L 21.87,72.95 M 21.58,72.78 L 21.56,72.77 L 21.44,72.63 M 21.42,72.61 L 21.38,72.57 L 21.31,72.47 M 20.98,71.96 L 20.93,71.87 L 20.39,70.00 M 17.35,67.23 L 17.26,67.94 L 17.17,70.77 L 17.14,70.63 L 17.27,67.76 L 17.37,67.07 L 17.62,66.28 M 20.38,69.98 L 20.30,69.68 L 20.35,69.28 M 84.65,47.32 L 84.67,48.12 L 84.65,48.60 L 84.45,49.99 L 84.33,50.74 L 83.98,52.52 L 83.79,53.43 L 83.33,55.39 L 82.85,57.34 L 81.80,60.88 L 81.54,61.67 L 81.07,62.88 L 80.48,63.95 L 80.31,64.12 L 79.79,64.40 L 79.49,64.53 L 78.60,64.76 L 78.10,64.87 L 76.71,65.05 L 75.94,65.14 L 73.92,65.28 L 72.82,65.35 L 70.04,65.46 L 68.55,65.52 L 64.89,65.61 L 62.94,65.66 L 58.28,65.74 L 57.04,65.76 L 54.36,65.80 L 50.00,65.85 L 48.30,65.87 L 45.20,65.91 L 43.69,65.93 L 40.96,65.97 L 39.63,65.99 L 37.24,66.03 L 36.08,66.05 L 34.01,66.09 L 33.01,66.11 L 31.23,66.16 L 30.37,66.18 L 28.87,66.23 L 27.43,66.29 L 25.26,66.43 L 24.28,66.50 L 22.90,66.68 L 22.29,66.78 L 21.51,67.03 L 21.17,67.16 L 20.85,67.43 L 20.91,67.30 L 21.48,65.11 L 21.41,63.77 L 21.15,63.31 L 20.79,62.80 L 21.62,62.57 L 22.16,62.45 L 23.61,62.23 L 24.41,62.12 L 26.49,61.93 L 27.61,61.83 L 30.45,61.64 L 31.97,61.55 L 35.71,61.34 L 36.71,61.29 L 38.90,61.18 L 42.50,61.00 L 44.53,60.90 L 48.25,60.71 L 50.06,60.62 L 53.36,60.43 L 54.96,60.33 L 57.87,60.14 L 59.28,60.04 L 61.83,59.83 L 63.06,59.73 L 65.28,59.50 L 66.35,59.38 L 68.27,59.12 L 70.12,58.86 L 73.03,58.21 L 74.37,57.86 L 76.46,56.99 L 77.42,56.53 L 78.91,55.39 L 79.61,54.78 L 80.74,53.31 L 82.30,50.65 L 82.84,49.62 L 83.76,48.10 L 83.97,47.79 L 84.28,47.39 L 84.55,47.22 M 17.78,65.81 L 17.78,65.79 L 17.81,65.75 M 82.14,37.16 L 82.91,37.19 L 84.23,37.31 L 84.85,37.39 L 85.75,37.58 L 86.46,37.93 L 86.63,38.22 L 86.60,38.76 L 86.53,39.01 L 86.15,39.38 L 85.93,39.53 L 85.38,39.61 L 85.10,39.60 L 84.58,39.24 L 84.48,39.15 L 83.90,38.92 L 83.55,38.81 L 82.56,38.56 L 78.69,37.91 L 73.50,37.28 L 79.69,37.14 L 80.54,37.12 Z" fill="rgba(40,85,215,1)"/>
<path d="M 15.19,22.51 L 15.53,23.05 L 15.74,23.31 L 16.41,23.73 L 16.79,23.93 L 17.88,24.26 L 18.48,24.41 L 20.08,24.66 L 20.95,24.78 L 23.16,24.97 L 24.34,25.07 L 27.25,25.24 L 32.50,25.49 L 36.20,25.65 L 43.40,26.03 L 46.95,26.22 L 53.71,26.64 L 57.02,26.85 L 63.18,27.31 L 66.16,27.54 L 71.54,28.01 L 74.11,28.24 L 78.53,28.71 L 79.56,28.83 L 81.43,29.06 L 82.33,29.18 L 83.90,29.41 L 84.64,29.52 L 85.89,29.74 L 86.47,29.85 L 87.38,30.06 L 87.79,30.16 L 88.33,30.36 L 88.72,30.65 L 88.77,30.80 L 88.64,31.25 L 88.55,31.49 L 88.16,32.05 L 86.28,33.80 L 85.71,34.21 L 84.43,34.82 L 83.73,35.09 L 81.93,35.48 L 81.43,35.57 L 80.27,35.72 L 79.65,35.78 L 78.23,35.90 L 77.48,35.95 L 75.74,36.04 L 72.73,36.15 L 71.26,36.20 L 68.56,36.23 L 67.28,36.24 L 65.15,36.20 L 64.18,36.17 L 62.85,36.06 L 62.57,36.03 L 62.22,35.95 L 62.07,35.91 L 62.00,35.82 L 62.00,35.78 L 61.69,35.69 L 61.48,35.65 L 60.80,35.57 L 60.41,35.53 L 59.39,35.46 L 58.84,35.42 L 57.52,35.36 L 56.14,35.30 L 52.67,35.23 L 46.75,35.20 L 42.56,35.21 L 33.41,35.01 L 31.23,34.95 L 27.35,34.78 L 26.44,34.74 L 24.82,34.65 L 22.75,34.50 L 13.99,33.76 L 12.63,29.13 L 12.25,27.86 L 11.92,25.76 L 11.87,25.31 L 11.90,24.66 L 12.12,24.17 L 12.35,24.08 L 12.58,23.80 L 12.67,23.65 L 12.67,23.27 L 12.64,23.04 L 12.79,23.28 L 13.14,23.58 L 13.81,23.98 L 14.08,23.90 L 14.59,23.54 L 14.75,23.08 L 15.00,21.99 L 15.00,21.49 L 15.11,22.18 M 10.79,20.81 L 11.72,21.48 L 11.98,21.95 L 11.63,21.56 L 10.63,20.92 L 9.09,20.69 M 14.52,19.19 L 15.00,21.09 L 15.00,21.17 Z" fill="rgba(32,207,251,1)"/>
<path d="M 17.65,72.51 L 18.55,73.97 L 19.22,74.44 L 20.56,75.23 L 21.29,75.48 L 22.76,75.89 L 23.46,75.94 L 24.80,75.95 L 25.33,75.79 L 26.27,75.37 L 26.50,75.00 L 26.55,74.60 L 26.38,74.38 L 26.20,74.29 L 25.27,74.00 L 24.54,74.00 L 22.33,73.37 L 21.79,72.90 L 22.11,73.09 L 22.44,73.24 L 23.48,73.47 L 24.08,73.57 L 25.83,73.72 L 26.81,73.79 L 29.51,73.88 L 30.25,73.90 L 31.96,73.93 L 32.85,73.94 L 34.87,73.96 L 35.93,73.97 L 38.29,73.98 L 39.52,73.99 L 42.26,73.99 L 43.69,74.00 L 46.83,74.00 L 52.04,74.00 L 53.90,74.00 L 57.30,74.00 L 58.94,74.00 L 61.91,74.00 L 63.34,74.01 L 65.90,74.01 L 67.14,74.02 L 69.33,74.03 L 70.38,74.04 L 72.23,74.07 L 73.12,74.08 L 74.66,74.11 L 75.39,74.13 L 76.41,74.17 L 76.30,74.19 L 76.04,74.28 L 75.60,74.47 L 75.51,74.59 L 75.41,74.85 L 75.50,75.00 L 75.75,75.27 L 75.97,75.39 L 76.48,75.62 L 76.80,75.71 L 78.25,76.00 L 79.06,76.00 L 81.14,75.71 L 81.62,75.51 L 81.77,75.39 L 81.87,75.28 L 81.94,75.43 L 82.00,76.13 L 82.00,76.62 L 81.88,77.26 L 81.79,77.54 L 81.34,77.81 L 81.05,77.90 L 80.06,77.86 L 77.75,77.52 L 76.58,77.31 L 74.31,77.07 L 73.79,77.02 L 72.92,76.98 L 72.00,77.02 L 71.90,77.03 L 71.24,77.07 L 70.84,77.09 L 69.64,77.13 L 68.98,77.15 L 67.30,77.18 L 66.41,77.20 L 64.32,77.24 L 63.23,77.26 L 60.79,77.30 L 59.54,77.32 L 56.82,77.35 L 47.95,77.45 L 44.85,77.47 L 39.10,77.58 L 37.72,77.61 L 35.16,77.68 L 33.91,77.72 L 31.67,77.80 L 30.59,77.84 L 28.73,77.93 L 27.86,77.98 L 26.44,78.07 L 25.80,78.12 L 24.90,78.22 L 24.20,78.38 L 23.87,78.58 L 23.35,78.59 L 23.13,78.53 L 23.00,78.06 L 23.00,77.77 L 22.58,77.31 L 21.56,77.00 L 21.06,77.00 L 20.16,76.62 L 19.73,76.38 L 18.99,75.59 L 18.64,75.15 L 18.08,74.06 L 17.83,73.48 L 17.47,72.17 L 17.44,72.06 M 50.03,74.00 L 43.03,74.04 L 39.11,74.12 L 37.55,74.17 L 36.05,74.23 L 35.40,74.26 L 34.16,74.33 L 33.65,74.37 L 32.68,74.45 L 32.30,74.49 L 31.61,74.58 L 31.36,74.63 L 30.95,74.73 L 30.84,74.79 L 30.71,74.89 L 30.74,74.95 L 30.89,75.07 L 31.07,75.13 L 31.51,75.25 L 31.83,75.32 L 32.56,75.45 L 33.04,75.51 L 34.06,75.65 L 34.68,75.72 L 36.00,75.86 L 36.78,75.93 L 38.40,76.07 L 39.33,76.15 L 42.02,76.32 L 43.51,76.38 L 46.58,76.47 L 48.18,76.48 L 54.71,76.45 L 57.76,76.33 L 60.73,76.19 L 62.06,76.10 L 64.61,75.90 L 65.65,75.79 L 67.56,75.54 L 68.21,75.40 L 69.29,75.11 L 69.45,74.95 L 69.32,74.74 L 68.87,74.61 L 68.48,74.55 L 67.59,74.44 L 66.97,74.39 L 65.63,74.29 L 64.80,74.25 L 63.04,74.17 L 62.00,74.14 L 59.83,74.09 L 58.59,74.06 L 56.02,74.03 L 54.60,74.02 L 51.65,74.00 M 20.93,71.87 L 21.07,72.14 L 21.36,72.53 L 21.20,72.40 L 20.86,71.74 L 20.32,70.31 L 20.32,69.76 M 20.91,67.30 L 20.50,68.21 L 20.35,69.31 L 20.52,67.90 L 20.94,67.11 L 21.06,66.72 M 17.74,65.89 L 18.64,64.10 L 17.62,66.29 M 21.15,63.31 L 21.18,63.36 L 20.90,62.96 M 13.82,23.98 L 13.81,23.98 L 13.80,23.98 M 14.59,23.54 L 14.51,23.59 L 14.62,23.43 M 15.00,21.99 L 14.92,22.34 L 15.00,21.85 M 9.11,13.51 L 9.53,13.75 L 9.54,13.76 L 9.34,13.65 L 8.86,13.52 L 8.65,13.62 L 8.61,13.75 L 8.55,14.45 L 8.70,14.97 L 9.10,16.09 L 9.43,16.64 L 10.16,17.72 L 10.61,18.09 L 11.59,19.41 L 12.00,20.49 L 12.00,20.96 L 12.19,22.32 L 12.05,22.09 L 11.72,21.48 L 10.79,20.81 L 9.09,20.69 L 8.56,20.82 L 7.19,20.73 L 5.33,20.13 L 4.92,19.89 L 4.40,19.55 L 4.19,19.41 L 4.07,19.23 L 4.06,19.15 L 4.35,19.08 L 5.21,19.03 L 5.72,19.02 L 6.71,18.43 L 7.18,18.07 L 7.94,17.02 L 8.27,16.48 L 8.60,15.32 L 8.39,13.82 L 8.16,13.45 L 8.27,13.21 L 8.40,13.16 M 12.75,16.32 L 13.41,16.92 L 14.37,18.57 L 14.45,18.91 L 13.92,17.82 L 13.42,17.15 L 12.66,16.25 Z" fill="rgba(126,119,130,1)"/>
<path d="M 39.33,76.15 L 38.40,76.07 L 36.78,75.93 L 36.00,75.86 L 34.68,75.72 L 34.06,75.65 L 33.04,75.51 L 32.56,75.45 L 31.83,75.32 L 31.51,75.25 L 31.07,75.13 L 30.89,75.07 L 30.74,74.95 L 30.71,74.89 L 30.84,74.79 L 30.95,74.73 L 31.36,74.63 L 31.61,74.58 L 32.30,74.49 L 32.68,74.45 L 33.65,74.37 L 34.16,74.33 L 35.40,74.26 L 36.05,74.23 L 37.55,74.17 L 39.11,74.12 L 43.03,74.04 L 50.03,74.00 L 51.65,74.00 L 54.60,74.02 L 56.02,74.03 L 58.59,74.06 L 59.83,74.09 L 62.00,74.14 L 63.04,74.17 L 64.80,74.25 L 65.63,74.29 L 66.97,74.39 L 67.59,74.44 L 68.48,74.55 L 68.87,74.61 L 69.32,74.74 L 69.45,74.95 L 69.29,75.11 L 68.21,75.40 L 67.56,75.54 L 65.65,75.79 L 64.61,75.90 L 62.06,76.10 L 60.73,76.19 L 57.76,76.33 L 54.71,76.45 L 48.18,76.48 L 46.58,76.47 L 43.51,76.38 L 42.02,76.32 M 19.22,74.44 L 18.55,73.97 L 17.65,72.51 L 17.28,71.72 L 17.02,69.85 L 16.96,68.89 L 17.34,66.90 L 18.64,64.10 L 19.00,63.59 L 19.53,62.92 L 19.78,62.65 L 20.16,62.44 L 20.34,62.39 L 20.66,62.60 L 21.18,63.36 L 21.47,63.87 L 21.54,65.11 L 20.94,67.11 L 20.52,67.90 L 20.32,69.52 L 20.32,70.31 L 20.86,71.74 L 21.20,72.40 L 22.33,73.37 L 24.54,74.00 L 25.27,74.00 L 26.20,74.29 L 26.38,74.38 L 26.55,74.60 L 26.50,75.00 L 26.27,75.37 L 25.33,75.79 L 24.80,75.95 L 23.46,75.94 L 22.76,75.89 L 21.29,75.48 L 20.56,75.23 M 75.50,75.00 L 75.41,74.85 L 75.51,74.59 L 75.60,74.47 L 76.04,74.28 L 76.30,74.19 L 77.04,74.07 L 78.44,74.00 L 79.42,74.00 L 80.95,74.29 L 81.28,74.38 L 81.72,74.61 L 82.00,75.00 L 82.00,75.14 L 81.77,75.39 L 81.62,75.51 L 81.14,75.71 L 79.06,76.00 L 78.25,76.00 L 76.80,75.71 L 76.48,75.62 L 75.97,75.39 L 75.75,75.27 M 12.67,23.33 L 12.48,23.15 L 12.20,22.36 L 12.00,20.96 L 12.00,20.49 L 11.59,19.41 L 10.61,18.09 L 10.16,17.72 L 9.43,16.64 L 9.10,16.09 L 8.70,14.97 L 8.55,14.45 L 8.61,13.75 L 8.65,13.62 L 8.86,13.52 L 9.34,13.65 L 10.18,14.12 L 11.63,15.25 L 12.32,15.85 L 13.42,17.15 L 13.92,17.82 L 14.59,19.18 L 15.00,21.17 L 15.00,21.85 L 14.83,22.85 L 14.72,23.29 L 14.36,23.80 L 14.16,23.99 L 13.63,23.97 L 13.34,23.90 Z" fill="rgba(214,217,226,1)"/>
</g>
</svg>