<svg xmlns="http://www.w3.org/2000/svg" width="24" height="24" viewBox="0 0 94 94">
<g>
<path d="M 86.53,50.89 L 86.66,51.92 L 86.83,54.55 L 86.90,55.96 L 86.97,59.45 L 87.00,65.77 L 87.00,67.84 L 86.99,71.26 L 86.99,72.87 L 86.96,75.46 L 86.93,76.66 L 86.86,78.56 L 86.82,79.43 L 86.69,80.75 L 86.62,81.35 L 86.43,82.24 L 86.32,82.64 L 86.03,83.22 L 84.78,84.44 L 84.57,84.59 L 83.50,84.86 L 82.86,84.98 L 81.02,85.21 L 80.02,85.32 L 77.53,85.52 L 76.22,85.61 L 73.19,85.76 L 71.62,85.84 L 68.18,85.95 L 66.41,86.01 L 62.66,86.09 L 58.85,86.16 L 50.80,86.20 L 46.78,86.20 L 38.98,86.09 L 37.10,86.05 L 35.06,85.99 L 37.82,86.00 L 60.91,86.00 L 58.41,83.50 L 55.66,81.61 L 53.60,81.00 L 52.39,81.00 L 50.62,80.81 L 49.17,80.51 L 48.39,80.29 L 45.11,79.24 L 43.69,78.57 L 41.23,77.44 L 39.35,76.58 L 38.37,76.13 L 36.41,75.25 L 35.47,74.83 L 33.65,74.02 L 32.88,73.68 L 29.42,71.99 L 27.63,70.93 L 27.06,70.49 L 26.55,70.06 L 26.39,69.88 L 26.13,69.54 L 26.10,69.41 L 26.12,69.18 L 26.24,69.11 L 26.56,69.00 L 26.85,69.00 L 27.80,69.20 L 28.93,69.53 L 29.68,69.76 L 31.30,70.27 L 32.23,70.58 L 34.14,71.23 L 35.15,71.58 L 38.63,72.81 L 40.76,73.55 L 41.73,73.88 L 45.36,75.13 L 46.85,75.61 L 49.60,76.50 L 50.69,76.83 L 52.68,77.39 L 53.44,77.55 L 54.79,77.81 L 55.26,77.84 L 56.09,77.82 L 56.35,77.72 L 56.77,77.45 L 56.87,77.24 L 57.00,76.75 L 57.00,76.43 L 57.41,74.76 L 58.02,73.79 L 58.41,73.45 L 59.23,72.87 L 59.64,72.81 L 60.44,72.84 L 60.75,73.15 L 62.16,73.77 L 63.48,73.93 L 64.13,73.83 L 65.30,73.54 L 65.85,73.22 L 66.02,72.96 L 66.32,72.40 L 66.40,71.99 L 66.50,71.10 L 66.50,70.50 L 66.39,68.93 L 66.18,68.20 L 65.97,67.96 L 65.46,67.54 L 65.05,67.41 L 64.14,67.17 L 63.50,67.09 L 60.50,66.67 L 63.50,66.08 L 64.92,65.67 L 65.65,65.30 L 65.92,65.06 L 66.40,64.53 L 66.56,64.19 L 66.83,63.45 L 66.90,62.99 L 67.31,60.50 L 67.94,63.00 L 68.44,64.12 L 68.93,64.75 L 69.24,65.00 L 70.59,65.83 L 71.32,65.95 L 72.80,66.01 L 73.40,65.72 L 73.97,65.38 L 74.19,65.12 L 74.57,64.54 L 74.67,64.17 L 75.00,63.06 L 75.21,62.69 L 75.37,62.69 L 75.73,62.81 L 76.01,63.05 L 76.66,63.66 L 77.15,64.15 L 79.06,65.49 L 80.27,65.82 L 80.79,65.71 L 81.77,65.32 L 82.13,64.86 L 82.73,63.78 L 82.83,62.99 L 83.34,60.95 L 83.83,59.81 L 84.08,59.55 L 84.44,58.85 L 84.65,58.10 L 84.73,57.63 L 85.00,55.53 L 85.00,54.36 L 85.31,51.17 L 85.52,50.34 L 85.65,50.05 L 85.92,49.55 L 86.07,49.46 L 86.27,49.21 M 64.07,76.00 L 62.51,76.09 L 61.80,76.27 L 61.58,76.44 L 61.21,76.84 L 61.12,77.15 L 61.00,77.85 L 61.00,78.33 L 61.21,80.19 L 61.51,81.18 L 61.71,81.38 L 62.64,82.01 L 63.17,82.05 L 64.26,81.97 L 64.77,81.70 L 65.76,81.04 L 66.12,80.53 L 66.74,79.42 L 66.82,78.75 L 66.89,77.28 L 66.77,76.64 L 66.58,76.45 L 66.11,76.15 L 65.70,76.08 L 64.76,76.00 M 72.07,76.00 L 70.51,76.09 L 69.80,76.27 L 69.58,76.44 L 69.21,76.84 L 69.12,77.15 L 69.00,77.85 L 69.00,78.33 L 69.21,80.19 L 69.51,81.18 L 69.71,81.38 L 70.64,82.01 L 71.17,82.05 L 72.26,81.97 L 72.77,81.70 L 73.76,81.04 L 74.12,80.53 L 74.74,79.42 L 74.82,78.75 L 74.89,77.28 L 74.77,76.64 L 74.58,76.45 L 74.11,76.15 L 73.70,76.08 L 72.76,76.00 M 72.07,68.00 L 70.51,68.09 L 69.80,68.27 L 69.58,68.44 L 69.21,68.84 L 69.12,69.15 L 69.00,69.85 L 69.00,70.33 L 69.21,72.19 L 69.51,73.18 L 69.71,73.38 L 70.64,74.01 L 71.17,74.05 L 72.26,73.97 L 72.77,73.70 L 73.76,73.04 L 74.12,72.53 L 74.74,71.42 L 74.82,70.75 L 74.89,69.28 L 74.77,68.64 L 74.58,68.45 L 74.11,68.15 L 73.70,68.08 L 72.76,68.00 M 76.69,49.12 L 77.97,49.14 L 78.51,49.17 L 79.50,49.23 L 79.90,49.29 L 81.28,49.55 L 81.72,49.77 L 82.46,50.28 L 82.73,50.65 L 83.64,52.07 L 83.93,52.83 L 83.91,53.17 L 83.75,53.83 L 83.51,54.19 L 82.90,54.95 L 82.43,55.43 L 81.75,55.97 L 81.25,56.18 L 80.12,56.54 L 79.32,56.66 L 77.56,56.86 L 76.39,56.91 L 73.82,56.99 L 72.18,56.98 L 68.70,56.91 L 66.57,56.80 L 65.66,56.73 L 63.97,56.56 L 63.37,56.45 L 62.35,56.24 L 62.17,56.13 L 61.32,54.70 L 61.08,53.21 L 61.17,52.39 L 61.50,49.50 L 71.48,49.21 L 74.37,49.14 L 76.00,49.12 M 67.05,50.15 L 65.17,50.21 L 64.42,50.26 L 63.07,50.39 L 62.65,50.47 L 62.00,50.65 L 62.00,50.75 L 62.16,50.94 L 62.45,51.02 L 63.17,51.15 L 63.69,51.20 L 64.83,51.26 L 65.52,51.27 L 66.96,51.26 L 67.75,51.22 L 71.09,51.04 L 72.89,50.92 L 73.57,50.86 L 74.80,50.76 L 75.20,50.70 L 75.85,50.60 L 75.96,50.56 L 76.03,50.47 L 75.85,50.43 L 75.34,50.35 L 74.86,50.31 L 73.77,50.25 L 73.00,50.22 L 71.31,50.17 L 70.25,50.15 M 82.72,45.12 L 83.27,45.20 L 84.17,45.59 L 84.59,45.82 L 85.26,46.59 L 85.56,47.03 L 85.57,47.04 L 85.30,46.81 L 84.00,45.87 L 83.22,45.54 L 81.65,45.01 M 42.90,29.13 L 43.48,29.45 L 43.64,29.84 L 43.90,30.78 L 43.94,31.59 L 43.98,32.47 L 43.99,33.01 L 44.00,34.17 L 44.00,40.74 L 40.25,41.36 L 39.12,41.53 L 38.46,41.60 L 37.08,41.74 L 36.35,41.80 L 33.42,41.99 L 32.25,41.99 L 29.87,41.93 L 28.88,41.77 L 28.60,41.57 L 28.17,41.09 L 28.09,40.68 L 28.00,39.72 L 28.00,39.00 L 28.09,37.41 L 28.29,36.71 L 28.50,36.50 L 29.00,36.17 L 29.41,36.09 L 30.33,36.00 L 31.00,36.00 L 32.31,35.91 L 33.00,35.75 L 33.25,35.62 L 33.69,35.34 L 33.81,35.16 L 34.00,34.75 L 34.00,34.50 L 34.67,33.40 L 35.72,33.00 L 36.50,33.00 L 37.66,32.89 L 38.24,32.71 L 38.44,32.55 L 38.78,32.19 L 38.87,31.93 L 39.00,31.37 L 39.00,31.00 L 39.13,30.07 L 39.36,29.61 L 39.56,29.45 L 40.02,29.18 L 40.34,29.11 L 41.04,29.00 L 41.50,29.00 Z" fill="rgba(75,98,132,1)"/>
<path d="M 16.00,52.29 L 16.01,55.62 L 16.01,57.15 L 16.02,60.11 L 16.03,61.45 L 16.04,64.07 L 16.05,65.25 L 16.07,67.53 L 16.09,68.56 L 16.11,70.53 L 16.13,71.41 L 16.17,73.10 L 16.19,73.85 L 16.23,75.27 L 16.26,75.89 L 16.38,78.14 L 16.45,78.94 L 16.61,80.36 L 16.72,80.81 L 16.93,81.56 L 17.06,81.74 L 17.34,82.00 L 17.50,82.00 L 18.56,81.78 L 19.00,81.46 L 19.00,81.25 L 19.30,81.11 L 19.79,81.02 L 20.16,80.98 L 20.99,80.91 L 21.53,80.88 L 22.66,80.82 L 23.33,80.80 L 26.26,80.74 L 28.02,80.73 L 31.72,80.74 L 33.75,80.78 L 48.50,81.07 L 45.00,79.21 L 44.19,78.81 L 45.11,79.24 L 48.39,80.29 L 49.17,80.51 L 50.62,80.81 L 52.39,81.00 L 53.60,81.00 L 55.66,81.61 L 58.41,83.50 L 60.91,86.00 L 37.82,86.00 L 34.05,85.99 L 32.26,85.98 L 29.26,85.94 L 27.84,85.92 L 25.51,85.85 L 24.43,85.82 L 22.68,85.71 L 21.87,85.66 L 20.61,85.51 L 20.03,85.43 L 19.16,85.23 L 18.76,85.13 L 18.19,84.88 L 17.94,84.74 L 17.57,84.43 L 17.40,84.26 L 17.11,83.71 L 16.97,83.39 L 16.75,82.41 L 16.64,81.85 L 16.47,80.25 L 16.39,79.36 L 16.27,76.97 L 16.22,75.66 L 16.14,72.30 L 16.12,71.39 L 16.09,69.36 L 16.07,68.31 L 16.05,65.98 L 16.04,64.77 L 16.03,62.11 L 16.02,60.74 L 16.01,57.73 L 16.01,56.18 L 16.00,52.80 L 16.00,52.02 M 27.06,70.49 L 27.63,70.93 L 29.42,71.99 L 32.88,73.68 L 33.65,74.02 L 35.40,74.80 L 34.75,74.53 L 32.04,73.32 L 30.36,72.51 L 29.65,72.13 L 28.32,71.40 L 27.84,71.10 L 27.03,70.53 L 26.87,70.35 L 26.85,70.31 M 29.44,69.67 L 30.09,69.87 L 31.47,70.32 L 32.32,70.60 L 34.10,71.21 L 34.14,71.23 L 32.23,70.58 L 31.30,70.27 L 29.68,69.76 L 28.93,69.53 L 28.88,69.51 M 16.00,47.61 L 16.00,47.29 L 16.00,46.87 M 81.62,45.00 L 83.22,45.54 L 84.00,45.87 L 84.77,46.43 L 83.63,45.80 L 82.61,45.50 L 80.46,45.00 M 77.34,11.72 L 77.42,12.12 L 77.55,13.17 L 77.61,13.74 L 77.71,15.11 L 77.76,15.85 L 77.84,17.57 L 77.88,18.48 L 77.93,20.56 L 77.95,21.64 L 77.98,24.09 L 78.00,28.20 L 78.00,45.00 L 75.00,45.00 L 75.00,31.00 L 75.07,25.56 L 75.18,22.38 L 75.26,21.11 L 75.34,19.90 L 75.39,19.40 L 75.49,18.46 L 75.54,18.10 L 75.65,17.47 L 75.71,17.29 L 75.82,17.00 L 75.88,17.00 L 76.36,16.77 L 76.64,16.41 L 76.76,16.14 L 77.18,14.91 L 77.28,14.15 L 77.41,12.60 L 77.33,11.90 L 77.12,10.81 L 77.18,10.98 M 15.99,33.58 L 15.99,37.54 L 15.99,39.75 L 16.00,44.32 L 16.00,44.72 L 15.99,40.09 L 15.99,37.86 L 15.99,33.85 L 15.99,31.93 L 15.99,31.83 M 76.80,10.20 L 76.90,10.30 L 76.98,10.49 L 76.79,10.25 L 76.17,9.90 M 18.49,9.95 L 18.64,9.77 L 18.64,9.77 M 26.19,9.03 L 22.61,9.01 L 20.71,9.07 L 19.98,9.26 L 18.93,9.66 L 19.98,9.26 L 20.71,9.07 L 22.61,9.01 M 33.58,7.86 L 33.98,7.61 L 33.58,7.86 L 33.50,8.00 L 32.73,8.39 L 33.50,8.00 Z" fill="rgba(110,44,28,1)"/>
<path d="M 17.00,13.02 L 18.28,13.70 L 19.04,13.98 L 19.25,13.98 L 19.40,14.63 L 19.50,15.66 L 19.54,16.46 L 19.63,18.22 L 19.67,19.35 L 19.75,21.76 L 19.78,23.18 L 19.85,26.14 L 19.88,27.81 L 19.93,31.25 L 19.95,33.12 L 19.98,36.94 L 20.00,38.97 L 20.01,43.10 L 20.01,45.25 L 20.07,57.56 L 20.10,61.33 L 20.12,63.08 L 20.17,66.46 L 20.20,67.98 L 20.26,70.89 L 20.29,72.14 L 20.36,74.48 L 20.40,75.41 L 20.47,77.10 L 20.51,77.66 L 20.59,78.60 L 20.63,78.75 L 20.91,79.71 L 21.23,80.03 L 21.60,80.32 L 21.89,80.43 L 22.53,80.63 L 22.98,80.70 L 23.75,80.79 L 23.33,80.80 L 22.66,80.82 L 21.53,80.88 L 20.99,80.91 L 20.16,80.98 L 19.79,81.02 L 19.30,81.11 L 19.00,81.25 L 19.00,81.46 L 18.56,81.78 L 17.50,82.00 L 17.34,82.00 L 17.06,81.74 L 16.93,81.56 L 16.72,80.81 L 16.61,80.36 L 16.45,78.94 L 16.38,78.14 L 16.26,75.89 L 16.23,75.27 L 16.19,73.85 L 16.17,73.10 L 16.13,71.41 L 16.11,70.53 L 16.09,68.56 L 16.07,67.53 L 16.05,65.25 L 16.04,64.07 L 16.03,61.45 L 16.02,60.11 L 16.01,57.15 L 16.01,55.62 L 16.00,52.29 L 16.00,50.58 L 16.00,46.86 L 16.00,44.32 L 15.99,39.75 L 15.99,37.54 L 15.99,33.58 L 15.99,31.68 L 16.00,28.30 L 16.01,26.68 L 16.05,23.83 L 16.08,22.47 L 16.16,20.11 L 16.20,18.99 L 16.34,17.07 L 16.41,16.16 L 16.61,14.64 L 16.72,13.92 L 16.94,12.98 M 48.50,81.07 L 44.97,81.00 L 48.37,81.00 M 37.54,51.80 L 38.03,52.04 L 38.19,52.33 L 38.48,53.02 L 38.58,53.58 L 38.74,54.85 L 38.81,55.75 L 39.11,60.00 L 43.56,60.00 L 45.95,60.07 L 46.99,60.22 L 47.29,60.39 L 47.77,60.79 L 47.87,61.12 L 48.00,61.88 L 48.00,62.43 L 47.27,64.76 L 46.14,66.32 L 45.37,66.93 L 43.86,68.04 L 43.19,68.36 L 41.86,68.84 L 41.15,68.86 L 39.65,68.73 L 38.73,68.43 L 36.72,67.69 L 35.40,67.09 L 32.77,65.66 L 31.52,64.66 L 31.11,64.08 L 30.42,62.86 L 30.25,62.10 L 30.00,60.49 L 30.00,59.47 L 30.63,57.13 L 31.57,55.48 L 32.21,54.73 L 33.58,53.29 L 34.32,52.78 L 35.81,51.91 L 36.50,51.80 M 85.25,46.69 L 85.60,46.93 L 86.14,47.42 L 86.37,47.67 L 86.62,48.16 L 86.71,48.40 L 86.62,48.86 L 86.07,49.46 L 86.42,48.49 L 85.97,47.52 L 85.41,46.90 L 84.98,46.54 M 80.46,45.00 L 80.80,45.08 L 79.74,45.00 M 76.79,10.25 L 77.08,10.60 L 77.33,11.90 L 77.41,12.60 L 77.28,14.15 L 77.18,14.91 L 76.76,16.14 L 76.64,16.41 L 76.36,16.77 L 75.88,17.00 L 75.82,17.00 L 75.71,17.29 L 75.65,17.47 L 75.54,18.10 L 75.49,18.46 L 75.39,19.40 L 75.34,19.90 L 75.26,21.11 L 75.18,22.38 L 75.07,25.56 L 75.00,31.00 L 75.00,45.00 L 74.05,45.00 L 73.78,29.29 L 73.50,13.59 L 71.00,13.00 L 69.70,12.63 L 69.34,12.40 L 69.44,12.26 L 69.83,11.93 L 70.34,11.69 L 71.55,11.15 L 72.50,10.76 L 75.35,9.58 L 75.86,9.72 M 19.89,9.66 L 19.31,9.82 L 18.34,10.11 L 18.65,9.77 L 19.98,9.26 L 20.71,9.07 L 22.61,9.01 L 26.19,9.03 L 21.27,9.41 M 63.81,8.80 L 65.55,8.92 L 68.44,9.00 L 69.60,9.00 L 71.22,9.07 L 68.81,9.05 L 65.77,8.95 L 63.95,8.82 L 63.20,8.72 L 63.14,8.71 M 34.83,7.29 L 34.21,7.49 L 34.83,7.29 L 37.15,7.00 L 37.99,7.00 L 37.15,7.00 M 51.27,5.00 L 51.97,5.55 L 53.96,6.41 L 56.85,7.00 L 57.68,7.00 L 59.17,7.29 L 57.68,7.00 L 56.85,7.00 L 53.96,6.41 L 51.97,5.55 L 51.27,5.00 L 51.27,5.00 M 48.32,3.33 L 47.67,3.11 L 47.00,3.11 L 46.41,3.18 L 47.00,3.00 L 47.48,3.00 M 43.43,4.45 L 42.73,5.00 L 43.43,4.45 Z" fill="rgba(197,94,61,1)"/>
<path d="M 23.25,66.01 L 24.87,66.22 L 26.16,66.55 L 26.87,66.79 L 29.76,67.92 L 31.00,68.64 L 33.18,69.84 L 34.89,70.73 L 35.79,71.18 L 37.62,72.08 L 38.51,72.49 L 40.24,73.29 L 41.00,73.61 L 41.52,73.81 L 40.76,73.55 L 38.63,72.81 L 35.15,71.58 L 34.10,71.21 L 32.32,70.60 L 31.47,70.32 L 30.09,69.87 L 29.44,69.67 L 28.41,69.38 L 27.94,69.26 L 27.25,69.13 L 26.95,69.08 L 26.57,69.10 L 26.41,69.13 L 26.30,69.31 L 26.28,69.41 L 26.42,69.72 L 26.87,70.35 L 27.03,70.53 L 27.84,71.10 L 28.32,71.40 L 29.65,72.13 L 30.36,72.51 L 32.04,73.32 L 34.75,74.53 L 36.60,75.30 L 40.54,77.06 L 41.47,77.48 L 43.10,78.25 L 44.99,79.18 L 48.47,81.00 L 33.19,81.00 L 30.45,80.99 L 29.17,80.99 L 27.11,80.96 L 26.16,80.94 L 24.67,80.87 L 23.99,80.82 L 22.98,80.70 L 22.53,80.63 L 21.89,80.43 L 21.60,80.32 L 21.23,80.03 L 20.91,79.71 L 20.63,78.75 L 20.59,78.60 L 20.51,77.66 L 20.47,77.10 L 20.40,75.41 L 20.36,74.48 L 20.29,72.14 L 20.26,70.89 L 20.20,67.98 L 20.17,66.46 L 20.17,66.00 M 74.05,45.00 L 79.74,45.00 L 81.18,45.10 L 81.86,45.18 L 82.98,45.44 L 83.50,45.59 L 84.35,46.03 L 85.41,46.90 L 85.97,47.52 L 86.42,48.49 L 86.07,49.46 L 85.92,49.55 L 85.65,50.05 L 85.52,50.34 L 85.31,51.17 L 85.00,54.36 L 85.00,55.53 L 84.73,57.63 L 84.65,58.10 L 84.44,58.85 L 84.08,59.55 L 83.83,59.81 L 83.34,60.95 L 82.83,62.99 L 82.73,63.78 L 82.13,64.86 L 81.77,65.32 L 81.12,65.58 L 81.37,65.44 L 82.09,64.87 L 82.33,64.42 L 82.74,63.41 L 82.82,62.74 L 82.89,61.27 L 82.77,60.64 L 82.58,60.45 L 82.11,60.15 L 81.70,60.08 L 80.75,60.00 L 80.07,60.00 L 78.50,60.09 L 77.79,60.27 L 77.57,60.45 L 77.20,60.86 L 77.12,61.18 L 77.00,61.91 L 77.00,62.42 L 77.37,64.27 L 77.40,64.32 L 77.15,64.15 L 76.66,63.66 L 76.01,63.05 L 75.73,62.81 L 75.37,62.69 L 75.21,62.69 L 75.00,63.06 L 74.99,63.07 L 75.00,63.03 L 75.00,62.50 L 74.89,61.22 L 74.67,60.64 L 74.45,60.46 L 73.94,60.16 L 73.54,60.09 L 72.63,60.00 L 72.00,60.00 L 70.46,60.09 L 69.77,60.28 L 69.55,60.46 L 69.20,60.89 L 69.11,61.22 L 69.00,61.97 L 69.00,62.50 L 69.03,63.45 L 69.11,63.78 L 69.33,64.36 L 69.55,64.54 L 70.06,64.84 L 70.46,64.91 L 71.37,65.00 L 72.00,65.00 L 73.54,64.91 L 74.23,64.72 L 74.45,64.54 L 74.62,64.33 L 74.57,64.54 L 74.19,65.12 L 73.97,65.38 L 73.40,65.72 L 72.80,66.01 L 71.32,65.95 L 70.59,65.83 L 69.24,65.00 L 68.93,64.75 L 68.44,64.12 L 67.94,63.00 L 67.31,60.50 L 66.90,62.99 L 66.83,63.45 L 66.56,64.19 L 66.40,64.53 L 65.92,65.06 L 65.65,65.30 L 64.92,65.67 L 63.50,66.08 L 60.50,66.67 L 63.50,67.09 L 64.14,67.17 L 65.05,67.41 L 65.46,67.54 L 65.97,67.96 L 66.18,68.20 L 66.21,68.32 L 65.94,68.16 L 65.54,68.09 L 64.63,68.00 L 64.00,68.00 L 62.46,68.09 L 61.77,68.28 L 61.55,68.46 L 61.20,68.89 L 61.11,69.22 L 61.00,69.97 L 61.00,70.50 L 61.03,71.45 L 61.11,71.78 L 61.33,72.36 L 61.55,72.54 L 62.06,72.84 L 62.46,72.91 L 63.37,73.00 L 64.00,73.00 L 65.54,72.91 L 66.14,72.75 L 66.02,72.96 L 65.85,73.22 L 65.30,73.54 L 64.13,73.83 L 63.48,73.93 L 62.16,73.77 L 60.75,73.15 L 60.44,72.84 L 59.64,72.81 L 59.23,72.87 L 58.41,73.45 L 58.02,73.79 L 57.41,74.76 L 57.00,76.43 L 57.00,76.75 L 56.87,77.24 L 56.77,77.45 L 56.35,77.72 L 56.09,77.82 L 55.26,77.84 L 54.79,77.81 L 53.44,77.55 L 52.68,77.39 L 50.69,76.83 L 49.60,76.50 L 46.85,75.61 L 45.51,75.17 L 45.62,75.20 L 47.02,75.54 L 47.60,75.63 L 48.66,75.76 L 49.00,75.73 L 50.38,75.48 L 50.95,75.13 L 51.10,74.76 L 51.30,73.88 L 51.32,73.15 L 51.31,72.36 L 51.29,71.87 L 51.25,70.83 L 51.22,70.20 L 51.20,67.43 L 51.34,65.80 L 51.51,65.03 L 51.91,63.50 L 52.22,62.71 L 52.91,61.10 L 53.38,60.20 L 55.31,56.00 L 55.84,54.63 L 56.04,54.04 L 56.40,52.91 L 56.49,52.50 L 57.56,49.34 L 58.56,47.84 L 59.28,47.34 L 60.87,46.51 L 61.96,46.30 L 63.10,46.11 L 63.75,46.06 L 65.12,45.99 L 65.90,45.98 L 70.23,45.74 L 71.40,45.57 L 71.84,45.47 L 72.60,45.27 L 72.78,45.16 L 73.37,44.01 L 73.52,43.30 L 73.57,42.83 L 73.68,41.83 L 73.72,41.20 L 73.79,39.85 L 73.81,39.04 L 73.84,37.33 L 73.84,36.32 L 73.85,34.20 L 73.83,32.98 L 73.82,31.86 M 80.79,65.71 L 80.27,65.82 L 80.03,65.76 L 80.89,65.67 M 64.07,60.00 L 62.48,60.09 L 61.77,60.28 L 61.55,60.46 L 61.19,60.89 L 61.11,61.24 L 61.00,62.02 L 61.00,62.57 L 61.02,63.55 L 61.10,63.89 L 61.29,64.46 L 61.49,64.62 L 61.95,64.87 L 62.32,64.89 L 63.16,64.88 L 63.75,64.82 L 65.03,64.55 L 65.69,64.26 L 65.94,64.05 L 66.38,63.60 L 66.52,63.30 L 66.76,62.65 L 66.82,62.25 L 66.87,61.09 L 66.72,60.57 L 66.53,60.41 L 66.04,60.14 L 65.64,60.08 L 64.72,60.00 M 74.37,49.14 L 71.48,49.21 L 61.50,49.50 L 61.17,52.39 L 61.08,53.21 L 61.32,54.70 L 62.17,56.13 L 62.35,56.24 L 63.37,56.45 L 63.97,56.56 L 65.66,56.73 L 66.57,56.80 L 68.70,56.91 L 72.18,56.98 L 73.82,56.99 L 76.39,56.91 L 77.56,56.86 L 79.32,56.66 L 80.12,56.54 L 81.25,56.18 L 81.75,55.97 L 82.43,55.43 L 82.90,54.95 L 83.51,54.19 L 83.75,53.83 L 83.91,53.17 L 83.93,52.83 L 83.64,52.07 L 82.73,50.65 L 82.46,50.28 L 81.72,49.77 L 81.28,49.55 L 79.90,49.29 L 79.50,49.23 L 78.51,49.17 L 77.97,49.14 L 76.69,49.12 L 76.00,49.12 M 71.31,50.17 L 73.00,50.22 L 73.77,50.25 L 74.86,50.31 L 75.34,50.35 L 75.85,50.43 L 76.03,50.47 L 75.96,50.56 L 75.85,50.60 L 75.20,50.70 L 74.80,50.76 L 73.57,50.86 L 72.89,50.92 L 71.09,51.04 L 67.75,51.22 L 66.96,51.26 L 65.52,51.27 L 64.83,51.26 L 63.69,51.20 L 63.17,51.15 L 62.45,51.02 L 62.16,50.94 L 62.00,50.75 L 62.00,50.65 L 62.65,50.47 L 63.07,50.39 L 64.42,50.26 L 65.17,50.21 L 67.05,50.15 L 70.25,50.15 M 62.40,38.07 L 63.68,38.20 L 64.06,38.34 L 64.68,38.68 L 64.82,38.95 L 65.00,39.56 L 65.00,40.00 L 64.96,40.78 L 64.82,41.05 L 64.45,41.52 L 64.06,41.66 L 63.14,41.88 L 62.40,41.93 L 60.71,42.00 L 59.50,42.00 L 56.60,41.93 L 55.32,41.80 L 54.94,41.66 L 54.32,41.32 L 54.18,41.05 L 54.00,40.44 L 54.00,40.00 L 54.18,38.95 L 54.55,38.48 L 54.94,38.34 L 55.86,38.12 L 56.60,38.07 L 58.29,38.00 L 59.50,38.00 M 28.17,41.09 L 28.60,41.57 L 28.88,41.77 L 29.87,41.93 L 32.25,41.99 L 33.42,41.99 L 36.35,41.80 L 37.08,41.74 L 38.46,41.60 L 39.12,41.53 L 40.25,41.36 L 44.00,40.74 L 44.00,34.17 L 43.99,33.01 L 43.98,32.47 L 43.94,31.59 L 43.90,30.78 L 43.64,29.84 L 43.48,29.45 L 42.90,29.13 L 41.50,29.00 L 41.59,29.00 L 43.68,28.51 L 44.53,27.68 L 44.71,27.00 L 45.71,25.51 L 46.85,25.00 L 47.62,25.00 L 48.97,25.16 L 49.53,25.60 L 49.68,26.14 L 49.81,26.75 L 49.86,27.17 L 49.93,28.08 L 49.95,28.67 L 49.99,29.96 L 49.99,30.75 L 50.00,32.46 L 50.00,42.00 L 28.00,42.00 L 28.00,39.72 L 28.09,40.68 M 19.50,15.38 L 19.54,16.04 L 19.63,17.51 L 19.67,18.45 L 19.75,20.45 L 19.78,21.63 L 19.84,24.10 L 19.87,25.49 L 19.92,28.35 L 19.94,29.90 L 20.00,36.42 L 20.00,40.03 L 20.00,38.97 L 19.98,36.94 L 19.95,33.12 L 19.93,31.25 L 19.88,27.81 L 19.85,26.14 L 19.78,23.18 L 19.75,21.76 L 19.67,19.35 L 19.63,18.22 L 19.54,16.46 L 19.50,15.66 L 19.40,14.63 L 19.25,13.98 L 19.40,14.52 M 62.14,31.07 L 63.41,31.20 L 63.83,31.32 L 64.55,31.59 L 64.73,31.78 L 65.00,32.21 L 65.00,32.50 L 64.92,33.03 L 64.73,33.22 L 64.26,33.57 L 63.83,33.68 L 62.85,33.88 L 62.14,33.93 L 60.56,34.00 L 59.50,34.00 L 56.86,33.93 L 55.59,33.80 L 55.17,33.68 L 54.45,33.41 L 54.27,33.22 L 54.00,32.79 L 54.00,32.50 L 54.27,31.78 L 54.74,31.43 L 55.17,31.32 L 56.15,31.12 L 56.86,31.07 L 58.44,31.00 L 59.50,31.00 M 39.13,30.07 L 39.13,30.06 L 39.28,29.78 M 39.37,29.61 L 39.37,29.60 L 39.50,29.50 M 39.57,29.44 L 39.57,29.44 L 39.58,29.44 M 48.46,4.32 L 48.85,4.47 L 49.62,4.85 L 50.02,5.17 L 50.85,5.89 L 51.32,6.40 L 53.91,8.35 L 55.82,9.00 L 56.86,9.00 L 58.25,9.09 L 58.97,9.25 L 59.23,9.37 L 59.68,9.65 L 59.81,9.84 L 60.00,10.25 L 60.00,10.50 L 60.24,11.56 L 60.60,12.00 L 60.83,12.00 L 61.11,12.24 L 61.24,12.62 L 61.28,12.90 L 61.33,14.23 L 61.20,15.07 L 60.27,17.62 L 59.15,18.75 L 58.31,19.07 L 57.38,19.33 L 56.66,19.44 L 55.06,19.63 L 54.08,19.70 L 52.02,19.82 L 50.88,19.85 L 48.57,19.91 L 47.38,19.91 L 45.02,19.89 L 43.89,19.86 L 41.68,19.77 L 40.71,19.70 L 38.86,19.55 L 38.15,19.45 L 36.88,19.22 L 36.52,19.09 L 35.09,18.00 L 34.35,16.88 L 34.11,16.17 L 33.71,14.67 L 33.65,13.84 L 33.65,12.13 L 33.81,11.25 L 34.16,10.14 L 34.53,9.62 L 34.81,9.45 L 35.43,9.17 L 35.87,9.10 L 36.85,9.00 L 37.49,9.00 L 40.27,8.50 L 41.69,7.68 L 42.13,7.05 L 43.89,5.48 L 45.46,4.62 L 46.21,4.45 L 47.64,4.25 M 45.76,8.84 L 45.37,9.23 L 45.23,10.02 L 45.96,11.45 L 46.31,11.87 L 47.03,12.32 L 47.38,12.47 L 48.01,12.41 L 48.30,12.32 L 48.72,11.79 L 48.90,11.47 L 49.00,10.50 L 49.00,10.02 L 48.67,9.24 L 48.47,8.90 L 47.86,8.47 L 47.53,8.30 L 46.80,8.29 M 71.01,11.39 L 71.55,11.15 L 72.50,10.76 L 71.55,11.15 M 40.06,6.40 L 42.73,5.00 L 43.53,4.37 L 42.73,5.00 Z" fill="rgba(163,174,181,1)"/>
<path d="M 38.73,68.43 L 39.65,68.73 L 41.15,68.86 L 41.86,68.84 L 42.63,68.56 L 42.28,68.72 L 41.95,68.82 L 41.34,68.98 L 41.12,68.98 L 39.89,68.81 L 38.92,68.55 L 38.39,68.36 L 36.81,67.73 M 36.66,67.67 L 36.18,67.47 L 35.79,67.27 M 45.85,66.54 L 45.54,66.79 L 45.85,66.54 M 46.99,65.19 L 46.63,65.65 L 46.55,65.75 L 47.10,64.99 M 31.11,64.08 L 31.43,64.53 L 31.18,64.28 L 30.74,63.76 L 30.65,63.54 L 30.52,63.03 M 41.31,51.22 L 41.79,51.39 L 42.73,51.84 L 43.24,52.23 L 44.30,53.14 L 44.95,53.80 L 47.30,57.16 L 48.13,59.57 L 48.16,60.76 L 47.99,63.11 L 47.52,64.16 L 47.34,64.52 L 48.00,62.43 L 48.00,61.88 L 47.87,61.12 L 47.77,60.79 L 47.29,60.39 L 46.99,60.22 L 45.95,60.07 L 43.56,60.00 L 39.11,60.00 L 38.81,55.75 L 38.74,54.85 L 38.58,53.58 L 38.48,53.02 L 38.19,52.33 L 38.03,52.04 L 37.54,51.80 L 36.50,51.80 L 36.32,51.83 L 37.44,51.46 L 38.20,51.34 L 40.24,51.14 M 55.24,8.80 L 55.58,8.86 L 56.75,9.00 L 55.82,9.00 M 30.20,61.77 L 30.12,61.48 L 30.09,61.08 M 30.20,58.73 L 30.29,58.14 L 30.51,57.52 L 30.55,57.40 M 33.58,53.29 L 32.21,54.73 L 31.57,55.48 L 30.76,56.90 L 31.00,56.31 L 31.35,55.75 L 32.11,54.66 L 32.57,54.18 L 33.57,53.27 L 34.15,52.89 L 34.20,52.86 M 56.34,19.49 L 54.88,19.71 L 54.00,19.78 L 52.15,19.91 L 51.07,19.95 L 48.80,20.00 L 47.50,20.00 L 44.09,19.95 L 42.11,19.86 L 41.25,19.79 L 39.63,19.62 L 39.51,19.60 L 40.71,19.70 L 41.68,19.77 L 43.89,19.86 L 45.02,19.89 L 47.38,19.91 L 48.57,19.91 L 50.88,19.85 L 52.02,19.82 L 54.08,19.70 L 55.06,19.63 L 56.62,19.44 M 60.85,16.67 L 60.58,17.36 L 60.35,17.65 L 59.84,18.21 L 59.47,18.44 L 59.44,18.46 L 60.27,17.62 L 60.97,15.70 M 40.27,8.50 L 40.24,8.50 L 40.33,8.46 M 41.35,7.87 L 41.89,7.39 L 41.69,7.68 M 73.52,43.30 L 73.57,42.83 L 73.68,41.82 L 73.72,41.19 L 73.79,39.84 L 73.81,39.03 L 73.84,37.31 L 73.84,36.31 L 73.84,36.32 L 73.84,37.33 L 73.81,39.04 L 73.79,39.85 L 73.72,41.20 L 73.68,41.83 L 73.57,42.83 L 73.52,43.30 L 73.37,44.01 L 72.78,45.16 L 73.37,44.00 M 58.89,8.93 L 59.66,8.81 L 59.93,8.72 L 60.39,8.53 L 60.49,8.41 L 60.59,8.15 L 60.58,8.14 L 61.35,8.39 L 61.81,8.51 L 63.20,8.72 L 63.95,8.82 L 65.77,8.95 L 68.81,9.05 L 76.50,9.10 L 72.50,10.76 L 71.55,11.15 L 70.34,11.69 L 69.83,11.93 L 69.44,12.26 L 69.34,12.40 L 69.70,12.63 L 71.00,13.00 L 73.03,13.48 L 67.25,13.20 L 65.22,13.11 L 64.13,13.08 L 63.69,13.08 L 62.23,13.14 L 61.83,13.29 L 61.30,13.61 L 61.28,12.90 L 61.24,12.62 L 61.11,12.24 L 60.83,12.00 L 60.60,12.00 L 60.24,11.56 L 60.00,10.50 L 60.00,10.25 L 59.81,9.84 L 59.68,9.65 L 59.23,9.37 L 58.97,9.25 L 58.25,9.09 L 56.86,9.00 L 57.42,9.00 M 33.42,8.29 L 33.53,8.41 L 33.84,8.64 L 34.13,8.73 L 34.80,8.88 L 35.25,8.93 L 36.23,9.00 L 36.82,9.00 L 37.83,8.94 L 37.49,9.00 L 36.85,9.00 L 35.87,9.10 L 35.43,9.17 L 34.81,9.45 L 34.53,9.62 L 34.16,10.14 L 33.81,11.25 L 33.65,12.13 L 33.65,13.84 L 33.71,14.67 L 34.11,16.17 L 34.35,16.88 L 35.09,18.00 L 35.90,18.61 L 35.74,18.53 L 35.03,18.07 L 34.76,17.80 L 33.94,16.60 L 33.83,15.80 L 33.48,14.54 L 33.02,14.01 L 32.56,13.85 L 31.46,13.61 L 30.57,13.56 L 29.60,13.52 L 29.01,13.51 L 27.75,13.50 L 20.50,13.50 L 20.23,39.75 L 20.00,62.73 L 20.00,36.42 L 19.94,29.90 L 19.92,28.35 L 19.87,25.49 L 19.84,24.10 L 19.78,21.63 L 19.75,20.45 L 19.67,18.45 L 19.63,17.51 L 19.54,16.04 L 19.50,15.38 L 19.40,14.52 L 19.25,13.98 L 19.04,13.98 L 18.28,13.70 L 17.00,13.02 L 16.64,12.79 L 16.26,12.32 L 16.12,12.09 L 16.18,11.62 L 16.25,11.39 L 16.70,10.95 L 16.97,10.74 L 17.76,10.34 L 18.20,10.15 L 19.31,9.82 L 19.89,9.66 L 21.27,9.41 L 26.19,9.03 L 27.11,9.03 L 28.84,8.94 L 29.67,8.89 L 31.10,8.72 L 31.76,8.62 L 32.73,8.39 L 33.50,8.00 L 33.58,7.86 L 33.50,8.00 M 59.17,7.29 L 57.68,7.00 L 56.85,7.00 L 53.96,6.41 L 51.97,5.55 L 53.96,6.41 L 56.85,7.00 L 57.68,7.00 L 59.17,7.29 L 59.50,7.38 L 60.02,7.61 L 59.50,7.38 M 37.99,7.00 L 40.04,6.41 L 42.73,5.00 L 40.04,6.41 L 37.99,7.00 L 37.15,7.00 L 34.83,7.29 L 37.15,7.00 Z" fill="rgba(230,156,118,1)"/>
<path d="M 61.71,81.38 L 61.51,81.18 L 61.21,80.19 L 61.00,78.33 L 61.00,77.85 L 61.12,77.15 L 61.21,76.84 L 61.58,76.44 L 61.80,76.27 L 62.51,76.09 L 64.07,76.00 L 64.76,76.00 L 65.70,76.08 L 66.11,76.15 L 66.58,76.45 L 66.77,76.64 L 66.89,77.28 L 66.82,78.75 L 66.74,79.42 L 66.12,80.53 L 65.76,81.04 L 64.77,81.70 L 64.26,81.97 L 63.17,82.05 L 62.64,82.01 M 69.71,81.38 L 69.51,81.18 L 69.21,80.19 L 69.00,78.33 L 69.00,77.85 L 69.12,77.15 L 69.21,76.84 L 69.58,76.44 L 69.80,76.27 L 70.51,76.09 L 72.07,76.00 L 72.76,76.00 L 73.70,76.08 L 74.11,76.15 L 74.58,76.45 L 74.77,76.64 L 74.89,77.28 L 74.82,78.75 L 74.74,79.42 L 74.12,80.53 L 73.76,81.04 L 72.77,81.70 L 72.26,81.97 L 71.17,82.05 L 70.64,82.01 M 41.00,73.61 L 40.24,73.29 L 38.51,72.49 L 37.62,72.08 L 35.79,71.18 L 34.89,70.73 L 33.18,69.84 L 31.00,68.64 L 29.76,67.92 L 26.86,66.79 L 26.16,66.55 L 24.86,66.22 L 23.23,66.01 L 19.97,66.00 L 20.23,39.75 L 20.50,13.50 L 27.00,13.50 L 27.75,13.50 L 29.01,13.51 L 29.60,13.52 L 30.57,13.56 L 31.46,13.61 L 32.56,13.85 L 33.02,14.01 L 33.48,14.54 L 33.83,15.80 L 33.94,16.60 L 34.76,17.80 L 35.03,18.07 L 35.74,18.53 L 36.13,18.74 L 37.12,19.09 L 37.65,19.26 L 38.94,19.51 L 39.63,19.62 L 41.25,19.79 L 42.11,19.86 L 44.09,19.95 L 47.50,20.00 L 48.80,20.00 L 51.07,19.95 L 52.15,19.91 L 54.00,19.78 L 54.88,19.71 L 56.34,19.49 L 57.03,19.37 L 58.15,19.05 L 58.67,18.87 L 59.47,18.44 L 59.84,18.21 L 60.35,17.65 L 60.58,17.36 L 60.85,16.67 L 61.00,15.48 L 61.00,14.85 L 61.12,14.02 L 61.22,13.66 L 61.83,13.29 L 62.23,13.14 L 63.69,13.08 L 64.13,13.08 L 65.22,13.11 L 67.25,13.20 L 73.50,13.50 L 73.78,28.92 L 73.80,30.38 L 73.83,32.95 L 73.85,34.17 L 73.85,36.30 L 73.84,37.31 L 73.81,39.03 L 73.79,39.84 L 73.72,41.19 L 73.68,41.82 L 73.57,42.83 L 73.52,43.30 L 73.37,44.00 L 72.78,45.16 L 72.60,45.27 L 71.84,45.47 L 71.40,45.57 L 70.23,45.74 L 65.90,45.98 L 65.12,45.99 L 63.75,46.06 L 63.10,46.11 L 61.96,46.30 L 60.87,46.51 L 59.28,47.34 L 58.56,47.84 L 57.56,49.34 L 56.49,52.50 L 56.40,52.91 L 56.04,54.04 L 55.84,54.63 L 55.31,56.00 L 53.38,60.20 L 52.91,61.10 L 52.22,62.71 L 51.91,63.50 L 51.51,65.03 L 51.34,65.80 L 51.20,67.43 L 51.22,70.20 L 51.25,70.83 L 51.29,71.87 L 51.31,72.36 L 51.32,73.15 L 51.30,73.88 L 51.10,74.76 L 50.95,75.13 L 50.38,75.48 L 49.00,75.73 L 48.66,75.76 L 47.60,75.63 L 47.02,75.54 L 45.62,75.20 L 44.17,74.82 M 45.37,66.93 L 45.85,66.54 L 46.63,65.65 L 46.99,65.19 L 47.52,64.16 L 47.99,63.11 L 48.16,60.76 L 48.13,59.57 L 47.30,57.16 L 44.95,53.80 L 44.30,53.14 L 43.24,52.23 L 42.73,51.84 L 41.79,51.39 L 41.31,51.22 L 40.24,51.14 L 38.20,51.34 L 37.44,51.46 L 36.04,51.92 L 35.36,52.18 L 34.15,52.89 L 33.57,53.27 L 32.57,54.18 L 32.11,54.66 L 31.35,55.75 L 31.00,56.31 L 30.51,57.52 L 30.29,58.14 L 30.08,59.45 L 30.02,60.11 L 30.12,61.48 L 30.65,63.54 L 30.74,63.76 L 31.18,64.28 L 31.44,64.55 L 32.18,65.13 L 32.97,65.72 L 35.09,66.91 L 36.18,67.47 L 38.39,68.36 L 38.92,68.55 L 39.89,68.81 L 41.12,68.98 L 41.34,68.98 L 41.95,68.82 L 42.28,68.72 L 43.03,68.38 L 43.80,68.01 M 50.00,33.50 L 50.00,32.46 L 49.99,30.75 L 49.99,29.96 L 49.95,28.67 L 49.93,28.08 L 49.86,27.17 L 49.81,26.75 L 49.68,26.14 L 49.53,25.60 L 48.97,25.16 L 47.62,25.00 L 46.85,25.00 L 45.71,25.51 L 44.71,27.00 L 44.53,27.68 L 43.68,28.51 L 41.59,29.00 L 41.11,29.00 L 40.38,29.10 L 40.04,29.17 L 39.57,29.44 L 39.37,29.60 L 39.13,30.06 L 39.00,31.00 L 39.00,31.37 L 38.87,31.93 L 38.78,32.19 L 38.44,32.55 L 38.24,32.71 L 37.66,32.89 L 36.50,33.00 L 35.72,33.00 L 34.67,33.40 L 34.00,34.50 L 34.00,34.75 L 33.81,35.16 L 33.69,35.34 L 33.25,35.62 L 33.00,35.75 L 32.31,35.91 L 31.00,36.00 L 30.33,36.00 L 29.41,36.09 L 29.00,36.17 L 28.50,36.50 L 28.29,36.71 L 28.09,37.41 L 28.00,39.00 L 28.00,42.00 L 39.00,42.00 L 50.00,42.00 L 50.00,33.50 M 65.00,40.00 L 65.00,39.56 L 64.82,38.95 L 64.68,38.68 L 64.06,38.34 L 63.68,38.20 L 62.40,38.07 L 59.50,38.00 L 58.29,38.00 L 56.60,38.07 L 55.86,38.12 L 54.94,38.34 L 54.55,38.48 L 54.18,38.95 L 54.00,40.00 L 54.00,40.44 L 54.18,41.05 L 54.32,41.32 L 54.94,41.66 L 55.32,41.80 L 56.60,41.93 L 59.50,42.00 L 60.71,42.00 L 62.40,41.93 L 63.14,41.88 L 64.06,41.66 L 64.45,41.52 L 64.82,41.05 L 64.96,40.78 M 65.00,32.50 L 65.00,32.21 L 64.73,31.78 L 64.55,31.59 L 63.83,31.32 L 63.41,31.20 L 62.14,31.07 L 59.50,31.00 L 58.44,31.00 L 56.86,31.07 L 56.15,31.12 L 55.17,31.32 L 54.74,31.43 L 54.27,31.78 L 54.00,32.50 L 54.00,32.79 L 54.27,33.22 L 54.45,33.41 L 55.17,33.68 L 55.59,33.80 L 56.86,33.93 L 59.50,34.00 L 60.56,34.00 L 62.14,33.93 L 62.85,33.88 L 63.83,33.68 L 64.26,33.57 L 64.73,33.22 L 64.92,33.03 M 69.71,73.38 L 69.51,73.18 L 69.21,72.19 L 69.00,70.33 L 69.00,69.85 L 69.12,69.15 L 69.21,68.84 L 69.58,68.44 L 69.80,68.27 L 70.51,68.09 L 72.07,68.00 L 72.76,68.00 L 73.70,68.08 L 74.11,68.15 L 74.58,68.45 L 74.77,68.64 L 74.89,69.28 L 74.82,70.75 L 74.74,71.42 L 74.12,72.53 L 73.76,73.04 L 72.77,73.70 L 72.26,73.97 L 71.17,74.05 L 70.64,74.01 M 61.00,70.50 L 61.00,69.97 L 61.11,69.22 L 61.20,68.89 L 61.55,68.46 L 61.77,68.28 L 62.46,68.09 L 64.00,68.00 L 64.63,68.00 L 65.54,68.09 L 65.94,68.16 L 66.45,68.46 L 66.67,68.64 L 66.89,69.22 L 67.00,70.50 L 67.00,71.03 L 66.89,71.78 L 66.80,72.11 L 66.45,72.54 L 66.23,72.72 L 65.54,72.91 L 64.00,73.00 L 63.37,73.00 L 62.46,72.91 L 62.06,72.84 L 61.55,72.54 L 61.33,72.36 L 61.11,71.78 L 61.03,71.45 M 78.25,65.35 L 77.91,65.21 L 77.37,64.27 L 77.00,62.42 L 77.00,61.91 L 77.12,61.18 L 77.20,60.86 L 77.57,60.45 L 77.79,60.27 L 78.50,60.09 L 80.07,60.00 L 80.75,60.00 L 81.70,60.08 L 82.11,60.15 L 82.58,60.45 L 82.77,60.64 L 82.89,61.27 L 82.82,62.74 L 82.74,63.41 L 82.33,64.42 L 82.09,64.87 L 81.37,65.44 L 80.98,65.66 L 79.99,65.76 L 79.47,65.75 M 61.00,62.57 L 61.00,62.02 L 61.11,61.24 L 61.19,60.89 L 61.55,60.46 L 61.77,60.28 L 62.48,60.09 L 64.07,60.00 L 64.72,60.00 L 65.64,60.08 L 66.04,60.14 L 66.53,60.41 L 66.72,60.57 L 66.87,61.09 L 66.82,62.25 L 66.76,62.65 L 66.52,63.30 L 66.38,63.60 L 65.94,64.05 L 65.69,64.26 L 65.03,64.55 L 63.75,64.82 L 63.16,64.88 L 62.32,64.89 L 61.95,64.87 L 61.49,64.62 L 61.29,64.46 L 61.10,63.89 L 61.02,63.55 M 69.00,62.50 L 69.00,61.97 L 69.11,61.22 L 69.20,60.89 L 69.55,60.46 L 69.77,60.28 L 70.46,60.09 L 72.00,60.00 L 72.63,60.00 L 73.54,60.09 L 73.94,60.16 L 74.45,60.46 L 74.67,60.64 L 74.89,61.22 L 75.00,62.50 L 75.00,63.03 L 74.89,63.78 L 74.80,64.11 L 74.45,64.54 L 74.23,64.72 L 73.54,64.91 L 72.00,65.00 L 71.37,65.00 L 70.46,64.91 L 70.06,64.84 L 69.55,64.54 L 69.33,64.36 L 69.11,63.78 L 69.03,63.45 M 33.50,8.00 L 33.58,7.86 L 33.98,7.61 L 34.21,7.49 L 34.83,7.29 L 37.15,7.00 L 37.99,7.00 L 40.04,6.41 L 42.73,5.00 L 43.53,4.37 L 44.97,3.58 L 45.67,3.26 L 47.00,3.11 L 47.67,3.11 L 49.03,3.58 L 51.27,5.00 L 51.97,5.55 L 53.96,6.41 L 56.85,7.00 L 57.68,7.00 L 59.17,7.29 L 59.50,7.38 L 60.02,7.61 L 60.50,8.00 L 60.59,8.15 L 60.49,8.41 L 60.39,8.53 L 59.93,8.72 L 59.66,8.81 L 58.89,8.93 L 57.42,9.00 L 56.75,9.00 L 55.58,8.86 L 55.02,8.76 L 54.02,8.41 L 53.54,8.20 L 52.64,7.61 L 51.32,6.40 L 50.85,5.89 L 50.02,5.17 L 49.62,4.85 L 48.85,4.47 L 48.46,4.32 L 47.64,4.25 L 46.21,4.45 L 45.46,4.62 L 43.89,5.48 L 42.13,7.05 L 41.89,7.39 L 41.28,7.93 L 40.95,8.18 L 40.15,8.54 L 39.72,8.70 L 38.68,8.89 L 36.82,9.00 L 36.23,9.00 L 35.25,8.93 L 34.80,8.88 L 34.13,8.73 L 33.84,8.64 L 33.53,8.41 L 33.42,8.29 Z" fill="rgba(235,234,235,1)"/>
</g>
</svg>